<svg xmlns="http://www.w3.org/2000/svg" viewBox="0 0 105.12 133.28" role="img" aria-labelledby="blogxivIconTitle">
  <title id="blogxivIconTitle">BlogXiv</title>
  <defs>
    <style>
      .blogxiv-primary,.blogxiv-secondary{fill:#7cacdc;}
      .blogxiv-primary{fill-rule:evenodd;}
      .blogxiv-outline{fill:none;stroke:#7cacdc;stroke-miterlimit:10;stroke-width:16px;}
    </style>
  </defs>
  <path class="blogxiv-primary" d="M69,13.47v8.24A14.39,14.39,0,0,1,83.41,36.13h8.24A22.64,22.64,0,0,0,69,13.47Z"/>
  <path class="blogxiv-primary" d="M66,0V8.24A30.85,30.85,0,0,1,96.89,39.12h8.23A39.08,39.08,0,0,0,66,0Z"/>
  <rect class="blogxiv-secondary" x="20" y="92.12" width="34" height="12.66" rx="6.33"/>
  <rect class="blogxiv-secondary" x="20" y="49.12" width="34" height="12.66" rx="6.33"/>
  <rect class="blogxiv-secondary" x="20" y="70.62" width="27.36" height="12.66" rx="6.33"/>
  <path class="blogxiv-outline" d="M8,125.28V30.16H42.63q15.92,0,24.48,5.83t8.55,16.46a19.46,19.46,0,0,1-5.2,13.46,27.38,27.38,0,0,1-13.3,8v.26q10.14,1.26,16.22,7.5a21,21,0,0,1,6.07,15.19q0,13.06-9.36,20.73t-25.54,7.66Z"/>
</svg>
