<?xml version="1.0" encoding="UTF-8"?><svg id="Layer_1" xmlns="http://www.w3.org/2000/svg" viewBox="0 0 1394.05 343.56"><defs><style>.cls-1{fill:#fff;stroke-width:0px;}</style></defs><path class="cls-1" d="m128.91,41.68c0,28.11-20.35,34.89-51.37,34.89h-25.2v2.91c0,43.23,0,54.28,20.35,54.28.97,0,1.94.97,1.94,1.94v2.91c0,.97-.97,1.94-1.94,1.94-23.26-.58-47.49-.58-70.76,0-.97,0-1.94-.97-1.94-1.94v-2.91c0-.97.78-1.94,1.94-1.94,20.36,0,20.36-10.66,20.36-54.28v-13.57c0-43.23,0-54.28-20.36-54.28-.97,0-1.94-.97-1.94-1.94v-2.91c0-.97.97-1.94,1.94-1.94h80.45c35.86,0,46.52,14.54,46.52,36.83Zm-57.19,27.14c10.66,0,25.2-5.81,25.2-27.14,0-16.48-5.81-29.08-28.11-29.08h-16.48v56.22h19.38Z"/><path class="cls-1" d="m275.65,41.68c0,21.32-19.77,30.63-41.68,31.02,24.04,4.65,38.19,24.62,43.62,48.46,1.36,6.01,8.92,12.41,18.42,12.6,1.16,0,1.94.78,1.94,1.94v2.91c0,.97-.78,1.94-1.94,1.94h-45.56c-1.74,0-3.88-1.55-3.88-3.88-5.62-58.15-28.69-60.09-40.71-60.09h-6.78v2.91c0,43.23,0,54.28,20.35,54.28,1.16,0,1.94.78,1.94,1.94v2.91c0,.97-.78,1.94-1.94,1.94-23.26-.58-47.49-.58-70.75,0-1.16,0-1.94-.58-1.94-1.94v-2.91c0-.78.78-1.94,1.94-1.94,20.35,0,20.35-10.66,20.35-54.28v-13.57c0-43.23,0-54.28-20.35-54.28-1.16,0-1.94-.78-1.94-1.94v-2.91c0-.97.78-1.94,1.94-1.94h80.45c35.86,0,46.52,14.54,46.52,36.83Zm-55.25,27.14c7.75,0,23.26-5.81,23.26-27.14,0-10.66-4.26-29.08-28.11-29.08h-16.48v56.22h21.32Z"/><path class="cls-1" d="m405.72,6.78v2.91c0,.97-.97,1.94-1.94,1.94-22.29,0-25.2,10.47-25.2,54.28v13.57c0,43.62,2.91,54.28,25.2,54.28.97,0,1.94.97,1.94,1.94v2.91c0,.97-.97,1.94-1.94,1.94h-80.45c-.97,0-1.94-.97-1.94-1.94v-2.91c0-.97.97-1.94,1.94-1.94,22.29,0,25.2-10.86,25.2-54.28v-13.57c0-43.42-2.91-54.28-25.2-54.28-1.16,0-1.94-.97-1.94-1.94v-2.91c0-1.16.78-1.94,1.94-1.94,27.14.58,53.31,0,80.45,0,.97,0,1.94.97,1.94,1.94Z"/><path class="cls-1" d="m595.61,6.78v2.91c0,.97-.97,1.94-1.94,1.94-11.44,0-25.2,2.91-25.2,28.11v98.86c0,.97-.97,1.94-1.94,1.94h-3.88c-.97,0-1.94,0-2.91-.97l-88.2-100.8v66.88c0,25.2,13.76,28.11,25.2,28.11.97,0,1.94.97,1.94,1.94v2.91c0,1.16-.78,1.94-1.94,1.94-19.38-.58-38.77-.58-58.15,0-1.16,0-1.94-.78-1.94-1.94v-2.91c0-.97.97-1.94,1.94-1.94,11.44,0,25.2-2.91,25.2-28.11V32.95c-6.98-10.27-15.12-20.16-24.23-21.32-.97,0-1.94-.97-1.94-1.94v-2.91c0-1.16.78-1.94,1.94-1.94h43.62c.97,0,2.13,0,2.91.97l74.63,90.14v-56.22c0-25.2-13.76-28.11-25.2-28.11-.97,0-1.94-.97-1.94-1.94v-2.91c0-1.16.78-1.94,1.94-1.94,19.39.58,38.77.58,58.16,0,1.16,0,1.94.78,1.94,1.94Z"/><path class="cls-1" d="m726.28,5.82l1.94.97c3.88,1.94,3.1,2.33,2.91,3.88-2.71,19.77.19,24.43.97,34.89,0,1.94-.39,3.68-1.94,4.85-3.49,2.13-6.78,1.94-7.75-1.94-6.59-25.59-23.84-39.74-40.71-39.74-28.69.58-39.74,30.05-39.74,65.91,0,31.99,13.57,58.16,44.58,58.16,19.39,0,31.02-12.6,36.83-20.35,2.91-3.88,9.69-.97,8.72,2.91-22.29,47.49-126.2,35.67-126-40.71-.19-45.17,26.75-74.63,68.82-74.63,22.68,0,34.51,8.92,41.68,14.54l4.85-6.78c1.75-2.33,2.91-2.91,4.85-1.94Z"/><path class="cls-1" d="m892.41,101.77h-3.88c-1.94,0-2.91.97-3.88,2.91-7.95,23.84-20.94,29.08-40.71,29.08h-3.88c-23.07,0-28.11-5.04-28.11-35.86v-21.32h12.6c6.78,0,21.32.97,21.32,23.26,0,.97.97,1.94,1.94,1.94h2.91c.97,0,1.94-.97,1.94-1.94-.58-18.42-.58-35.86,0-54.28,0-.97-.97-1.94-1.94-1.94h-2.91c-.97,0-1.94.97-1.94,1.94,0,22.29-14.54,23.26-21.32,23.26h-12.6V25.2c0-11.24,1.74-13.38,9.69-13.57,22.29.19,41.87,2.13,50.4,24.23.78,1.94,1.94,2.91,3.88,2.91h3.88c.97,0,1.94-.97,1.94-1.94l-1.94-30.05c0-.97-.97-1.94-1.94-1.94h-116.31c-.97,0-1.94.97-1.94,1.94v2.91c0,.97.97,1.94,1.94,1.94,20.35,0,20.35,10.66,20.35,54.28v13.57c0,43.62,0,54.28-20.35,54.28-.97,0-1.94.97-1.94,1.94v2.91c0,.97.97,1.94,1.94,1.94h130.85c.97,0,1.94-.97,1.94-1.94v-34.89c0-.97-.97-1.94-1.94-1.94Z"/><path class="cls-1" d="m1054.09,6.78v35.86c0,.97-.97,1.94-1.94,1.94h-2.91c-.97,0-2.13.19-2.91-1.94-4.46-12.6-12.02-31.02-37.8-31.02h-8.72v67.85c0,43.42,2.71,54.28,25.2,54.28.97,0,1.94.97,1.94,1.94v2.91c0,.97-.97,1.94-1.94,1.94-27.14-.58-53.31-.58-80.45,0-.97,0-1.94-.97-1.94-1.94v-2.91c0-.97.97-1.94,1.94-1.94,22.49,0,25.2-10.86,25.2-54.28V11.63h-8.72c-25.59,0-33.15,18.42-37.8,31.02-.78,1.94-1.94,1.94-2.91,1.94h-2.91c-.97,0-1.94-.97-1.94-1.94V6.78c0-.97.97-1.94,1.94-1.94h134.73c.97,0,1.94.97,1.94,1.94Z"/><path class="cls-1" d="m1145.62,0c37.99.39,72.89,33.34,72.69,71.72.19,38.77-34.7,71.72-72.69,71.72-37.99-.39-72.89-33.34-72.69-71.72-.19-38.77,34.7-71.72,72.69-71.72Zm0,135.69c34.7-.19,37.41-49.04,36.83-63.97.19-11.44-2.13-63.39-36.83-63.97-34.7.19-37.03,52.15-36.83,63.97-.58,14.54,2.13,63.39,36.83,63.97Z"/><path class="cls-1" d="m1394.05,6.78v2.91c0,.97-.97,1.94-1.94,1.94-11.44,0-25.2,2.91-25.2,28.11v98.86c0,.97-.97,1.94-1.94,1.94h-3.88c-.97,0-1.94,0-2.91-.97l-88.2-100.8v66.88c0,25.2,13.76,28.11,25.2,28.11.97,0,1.94.97,1.94,1.94v2.91c0,1.16-.78,1.94-1.94,1.94-19.38-.58-38.77-.58-58.15,0-1.16,0-1.94-.78-1.94-1.94v-2.91c0-.97.97-1.94,1.94-1.94,11.44,0,25.2-2.91,25.2-28.11V32.95c-6.98-10.27-15.12-20.16-24.23-21.32-.97,0-1.94-.97-1.94-1.94v-2.91c0-1.16.78-1.94,1.94-1.94h43.62c.97,0,2.13,0,2.91.97l74.63,90.14v-56.22c0-25.2-13.76-28.11-25.2-28.11-.97,0-1.94-.97-1.94-1.94v-2.91c0-1.16.78-1.94,1.94-1.94,19.39.58,38.77.58,58.16,0,1.16,0,1.94.78,1.94,1.94Z"/><path class="cls-1" d="m146.46,207.77v2.91c0,.97,0,1.94-1.94,1.94-14.55,0-17.46,6.79-17.46,20.37v54.32c0,33.95-9.7,56.26-54.32,56.26-37.83,0-51.41-22.31-51.41-56.26v-54.32c0-19.4-3.88-20.37-19.4-20.37-.97,0-1.94-.97-1.94-1.94v-2.91c0-.78.97-1.94,1.94-1.94,19.4.58,35.89.58,56.25,0,1.94,0,1.94.97,1.94,1.94v2.91c0,.97,0,1.94-1.94,1.94-15.52,0-20.37.97-20.37,20.37v47.53c0,27.16,4.66,49.47,40.74,49.47s41.71-22.31,41.71-49.47v-47.53c0-19.4-14.55-20.37-28.13-20.37-1.94,0-1.94-.97-1.94-1.94v-2.91c0-.97,0-1.94,1.94-1.94,27.16.58,34.92.58,52.38,0,1.94,0,1.94.78,1.94,1.94Z"/><path class="cls-1" d="m323.15,207.77v2.91c0,.97,0,1.94-1.94,1.94-13.58,0-24.25,2.91-24.25,28.13v98.93q0,1.94-.97,1.94h-4.85c-.97,0,0-.97-92.14-106.69v72.74c0,24.25,9.7,27.16,24.25,27.16,1.94,0,1.94.97,1.94,1.94v2.91c0,.97,0,1.94-1.94,1.94-24.25-.58-31.04-.58-55.29,0-1.94,0-1.94-.97-1.94-1.94v-2.91c0-.97,0-1.94,1.94-1.94,15.52,0,24.25-2.91,24.25-27.16v-79.53c-6.79-9.7-9.7-15.52-22.31-15.52-1.94,0-1.94-.97-1.94-1.94v-2.91c0-.97,0-1.94,1.94-1.94h28.13c.97,0,1.94,0,2.91.97l89.23,105.72v-71.77c0-25.22-10.67-28.13-24.25-28.13-1.94,0-1.94-.97-1.94-1.94v-2.91c0-.97,0-1.94,1.94-1.94,24.25.58,31.04.58,55.29,0,1.94,0,1.94.97,1.94,1.94Z"/><path class="cls-1" d="m414.87,207.77v2.91c0,.97,0,1.94-1.94,1.94-22.31,0-24.25.97-24.25,54.32v13.58c0,54.32,1.94,54.32,24.25,54.32,1.94,0,1.94.97,1.94,1.94v2.91c0,.97,0,1.94-1.94,1.94-27.16-.58-37.83-.58-64.99,0-1.94,0-1.94-.97-1.94-1.94v-2.91c0-.97,0-1.94,1.94-1.94,22.31,0,24.25,0,24.25-54.32v-13.58c0-53.35-1.94-54.32-24.25-54.32-1.94,0-1.94-.97-1.94-1.94v-2.91c0-1.16,0-1.94,1.94-1.94,28.13.58,37.83.58,64.99,0,1.94,0,1.94.97,1.94,1.94Z"/><path class="cls-1" d="m577.29,207.77v2.91c0,.97,0,1.94-1.94,1.94-12.61,0-16.88,6.79-22.31,20.37l-42.68,106.69c-.78,1.94-.97,1.94-1.94,1.94h-2.91c-.97,0-1.16,0-1.94-1.94l-42.68-106.69c-6.01-15.13-7.95-20.37-22.31-20.37-1.94,0-1.94-.97-1.94-1.94v-2.91c0-.97,0-1.94,1.94-1.94,14.55.58,32.98.39,56.26,0,1.94,0,1.94,1.16,1.94,1.94v2.91c0,.97,0,1.94-1.94,1.94-23.28,0-20.37,6.79-14.55,20.37,4.46,10.28,15.52,38.41,32.98,81.47l32.98-81.47c1.94-4.66,7.76-20.37-15.52-20.37-1.94,0-1.94-.97-1.94-1.94v-2.91c0-.97,0-1.94,1.94-1.94,23.28.58,36.86,0,44.62,0,1.94,0,1.94.78,1.94,1.94Z"/><path class="cls-1" d="m720.76,302.82h-1.94c-2.91,0-3.1.97-3.88,2.91-7.76,22.31-1.75,29.1-44.62,29.1h-7.76c-23.28,0-25.22-1.94-25.22-30.07v-28.13h13.58c6.79,0,21.34,1.94,21.34,24.25,0,1.94.97,1.94,1.94,1.94h2.91c.97,0,1.94,0,1.94-1.94v-54.32c0-1.94-.97-1.94-1.94-1.94h-2.91c-.97,0-1.94,0-1.94,1.94,0,22.31-14.55,23.28-21.34,23.28h-13.58v-46.56c0-8.15,1.75-10.48,14.74-10.67,40.54.19,45,2.33,50.24,24.25.39,1.94.97,2.91,3.88,2.91h1.94c.97,0,1.94-.97,1.94-1.94l-1.94-30.07c0-.97-.97-1.94-1.94-1.94-67.89.58-86.32.58-106.69,0-2.13,0-1.94,1.36-1.94,1.94v2.91c0,.97,0,1.94,1.94,1.94,20.37,0,21.34,10.67,21.34,54.32v13.58c0,43.65-.97,54.32-21.34,54.32-1.94,0-1.94.97-1.94,1.94v2.91c0,.58,0,1.94,1.94,1.94,20.37-.58,38.8-.58,121.24,0,1.94,0,1.94-.97,1.94-1.94v-34.92c0-1.94-.97-1.94-1.94-1.94Z"/><path class="cls-1" d="m857.32,238.81c0,24.64-21.34,34.92-41.71,34.92,24.44,0,36.08,24.83,41.71,48.5,1.55,6.6,8.92,12.61,18.43,12.61,1.94,0,1.94.78,1.94,1.94v2.91c0,.97,0,1.94-1.94,1.94h-33.95c-1.75,0-3.88-.97-3.88-3.88,0-58.78-33.37-62.08-45.59-62.08h-7.76c0,57.23-1.94,59.17,22.31,59.17,1.94,0,1.94.97,1.94,1.94v2.91c0,.97,0,1.94-1.94,1.94-23.28-.58-36.86-.58-61.11,0-1.94,0-1.94-.97-1.94-1.94v-2.91c0-.97,0-1.94,1.94-1.94,24.25,0,22.31-1.94,22.31-58.2v-7.76c0-56.26,1.94-56.26-22.31-56.26-1.94,0-1.94-.78-1.94-1.94v-2.91c0-.97,0-1.94,1.94-1.94h69.84c22.11,0,41.71,10.67,41.71,32.98Zm-64.99,30.07c36.86,0,42.68-12.61,42.68-30.07,0-14.55-2.91-26.19-42.68-26.19h-7.76v56.26h7.76Z"/><path class="cls-1" d="m974.18,216.5l5.82-5.82c1.75-1.94,1.94-2.33,4.85-.97,1.75.97,2.91,1.94,2.91,2.91-1.94,8.92-5.24,15.91-.97,28.13.78,2.91.78,3.88-1.94,4.85-3.1.97-3.49.78-4.85-2.91-8.92-20.37-19.59-31.62-35.89-31.04-26.38.97-27.35,19.4-27.16,23.28-.19,36.86,80.31,18.43,80.5,68.86-.19,27.16-15.52,39.77-43.65,39.77s-31.04-10.67-37.83-10.67c-2.13,0-6.01,3.1-7.76,4.85-.97.97-2.91.97-4.85,0-3.69-1.94-3.1-2.72-1.94-7.76,1.75-10.67,1.55-15.52.97-26.19-.39-2.91-1.16-3.88,1.94-4.85,3.88-1.36,3.49.97,4.85,3.88,9.51,25.22,21.15,33.95,40.74,33.95,28.9,0,31.81-20.37,32.01-29.1-.19-32.98-79.73-17.46-79.53-65.96-.19-21.34,17.26-36.86,39.77-36.86,18.24,0,25.41,6.98,32.01,11.64Z"/><path class="cls-1" d="m1085.9,207.77v2.91c0,.97,0,1.94-1.94,1.94-22.31,0-24.25.97-24.25,54.32v13.58c0,54.32,1.94,54.32,24.25,54.32,1.94,0,1.94.97,1.94,1.94v2.91c0,.97,0,1.94-1.94,1.94-27.16-.58-37.83-.58-64.99,0-1.94,0-1.94-.97-1.94-1.94v-2.91c0-.97,0-1.94,1.94-1.94,22.31,0,24.25,0,24.25-54.32v-13.58c0-53.35-1.94-54.32-24.25-54.32-1.94,0-1.94-.97-1.94-1.94v-2.91c0-1.16,0-1.94,1.94-1.94,28.13.58,37.83.58,64.99,0,1.94,0,1.94.97,1.94,1.94Z"/><path class="cls-1" d="m1246.44,207.77v35.89c0,1.94-.97,1.94-1.94,1.94h-1.94c-.97,0-1.94,0-2.91-1.94-5.82-12.61-3.88-31.04-40.74-31.04h-11.64v67.89c0,54.32,1.94,54.32,24.25,54.32,1.94,0,1.94.97,1.94,1.94v2.91c0,1.16,0,1.94-1.94,1.94-25.22-.39-39.77-.39-64.98,0-1.94,0-1.94-.78-1.94-1.94v-2.91c0-.97,0-1.94,1.94-1.94,22.31,0,24.25,0,24.25-54.32v-67.89h-11.64c-36.86,0-34.92,18.43-40.74,31.04-.97,1.94-1.94,1.94-2.91,1.94h-1.94c-.97,0-1.94,0-1.94-1.94v-35.89c0-.97,0-1.94,1.94-1.94h130.94c1.94,0,1.94.97,1.94,1.94Z"/><path class="cls-1" d="m1392.11,205.83c.97,0,1.94.97,1.94,1.94v2.91c0,.97,0,1.94-1.94,1.94-7.76,0-18.82,6.79-25.22,20.37l-28.13,59.17c0,42.68,2.91,42.68,25.22,42.68,1.94,0,1.94,1.94,1.94,2.91v1.94c0,.97,0,1.94-1.94,1.94-26.19-.58-40.74-.58-64.99,0-1.94,0-1.94-.78-1.94-1.94v-2.91c0-.97,0-1.94,1.94-1.94,20.37,0,23.28,0,23.28-40.74l-32.01-61.11c-7.37-13.97-8.92-20.37-23.28-20.37-1.94,0-1.94-.97-1.94-1.94v-2.91c0-.97,0-1.94,1.94-1.94,14.55.58,40.74.58,52.38,0,1.94,0,1.94.97,1.94,1.94v2.91c0,.97,0,1.94-1.94,1.94-11.64,0-19.4,3.49-10.67,20.37l26.19,50.44,24.25-50.44c6.79-14.16,7.76-20.37-11.64-20.37-1.94,0-1.94-.97-1.94-1.94v-2.91c0-.97,0-1.94,1.94-1.94,19.4.58,36.86,0,44.62,0Z"/></svg>