<?xml version="1.0" encoding="UTF-8"?><svg id="Layer_1" xmlns="http://www.w3.org/2000/svg" viewBox="0 0 1852.11 500"><defs><style>.cls-1{fill:#f58025;}.cls-1,.cls-2{stroke-width:0px;}.cls-2{fill:#fff;}</style></defs><path class="cls-2" d="m586.97,118.64c0,28.11-20.35,34.89-51.37,34.89h-25.2v2.91c0,43.23,0,54.28,20.35,54.28.97,0,1.94.97,1.94,1.94v2.91c0,.97-.97,1.94-1.94,1.94-23.26-.58-47.49-.58-70.76,0-.97,0-1.94-.97-1.94-1.94v-2.91c0-.97.78-1.94,1.94-1.94,20.36,0,20.36-10.66,20.36-54.28v-13.57c0-43.23,0-54.28-20.36-54.28-.97,0-1.94-.97-1.94-1.94v-2.91c0-.97.97-1.94,1.94-1.94h80.45c35.86,0,46.52,14.54,46.52,36.83Zm-57.19,27.14c10.66,0,25.2-5.81,25.2-27.14,0-16.48-5.81-29.08-28.11-29.08h-16.48v56.22h19.38Z"/><path class="cls-2" d="m733.71,118.64c0,21.32-19.77,30.63-41.68,31.02,24.04,4.65,38.19,24.62,43.62,48.46,1.36,6.01,8.92,12.41,18.42,12.6,1.16,0,1.94.78,1.94,1.94v2.91c0,.97-.78,1.94-1.94,1.94h-45.56c-1.74,0-3.88-1.55-3.88-3.88-5.62-58.15-28.69-60.09-40.71-60.09h-6.78v2.91c0,43.23,0,54.28,20.35,54.28,1.16,0,1.94.78,1.94,1.94v2.91c0,.97-.78,1.94-1.94,1.94-23.26-.58-47.49-.58-70.75,0-1.16,0-1.94-.58-1.94-1.94v-2.91c0-.78.78-1.94,1.94-1.94,20.35,0,20.35-10.66,20.35-54.28v-13.57c0-43.23,0-54.28-20.35-54.28-1.16,0-1.94-.78-1.94-1.94v-2.91c0-.97.78-1.94,1.94-1.94h80.45c35.86,0,46.52,14.54,46.52,36.83Zm-55.25,27.14c7.75,0,23.26-5.81,23.26-27.14,0-10.66-4.26-29.08-28.11-29.08h-16.48v56.22h21.32Z"/><path class="cls-2" d="m863.78,83.75v2.91c0,.97-.97,1.94-1.94,1.94-22.29,0-25.2,10.47-25.2,54.28v13.57c0,43.62,2.91,54.28,25.2,54.28.97,0,1.94.97,1.94,1.94v2.91c0,.97-.97,1.94-1.94,1.94h-80.45c-.97,0-1.94-.97-1.94-1.94v-2.91c0-.97.97-1.94,1.94-1.94,22.29,0,25.2-10.86,25.2-54.28v-13.57c0-43.42-2.91-54.28-25.2-54.28-1.16,0-1.94-.97-1.94-1.94v-2.91c0-1.16.78-1.94,1.94-1.94,27.14.58,53.31,0,80.45,0,.97,0,1.94.97,1.94,1.94Z"/><path class="cls-2" d="m1053.67,83.75v2.91c0,.97-.97,1.94-1.94,1.94-11.44,0-25.2,2.91-25.2,28.11v98.86c0,.97-.97,1.94-1.94,1.94h-3.88c-.97,0-1.94,0-2.91-.97l-88.2-100.8v66.88c0,25.2,13.76,28.11,25.2,28.11.97,0,1.94.97,1.94,1.94v2.91c0,1.16-.78,1.94-1.94,1.94-19.38-.58-38.77-.58-58.15,0-1.16,0-1.94-.78-1.94-1.94v-2.91c0-.97.97-1.94,1.94-1.94,11.44,0,25.2-2.91,25.2-28.11v-72.69c-6.98-10.27-15.12-20.16-24.23-21.32-.97,0-1.94-.97-1.94-1.94v-2.91c0-1.16.78-1.94,1.94-1.94h43.62c.97,0,2.13,0,2.91.97l74.63,90.14v-56.22c0-25.2-13.76-28.11-25.2-28.11-.97,0-1.94-.97-1.94-1.94v-2.91c0-1.16.78-1.94,1.94-1.94,19.39.58,38.77.58,58.16,0,1.16,0,1.94.78,1.94,1.94Z"/><path class="cls-2" d="m1184.34,82.78l1.94.97c3.88,1.94,3.1,2.33,2.91,3.88-2.71,19.77.19,24.43.97,34.89,0,1.94-.39,3.68-1.94,4.85-3.49,2.13-6.78,1.94-7.75-1.94-6.59-25.59-23.84-39.74-40.71-39.74-28.69.58-39.74,30.05-39.74,65.91,0,31.99,13.57,58.16,44.58,58.16,19.39,0,31.02-12.6,36.83-20.35,2.91-3.88,9.69-.97,8.72,2.91-22.29,47.49-126.2,35.67-126-40.71-.19-45.17,26.75-74.63,68.82-74.63,22.68,0,34.51,8.92,41.68,14.54l4.85-6.78c1.75-2.33,2.91-2.91,4.85-1.94Z"/><path class="cls-2" d="m1350.47,178.73h-3.88c-1.94,0-2.91.97-3.88,2.91-7.95,23.84-20.94,29.08-40.71,29.08h-3.88c-23.07,0-28.11-5.04-28.11-35.86v-21.32h12.6c6.78,0,21.32.97,21.32,23.26,0,.97.97,1.94,1.94,1.94h2.91c.97,0,1.94-.97,1.94-1.94-.58-18.42-.58-35.86,0-54.28,0-.97-.97-1.94-1.94-1.94h-2.91c-.97,0-1.94.97-1.94,1.94,0,22.29-14.54,23.26-21.32,23.26h-12.6v-43.62c0-11.24,1.74-13.38,9.69-13.57,22.29.19,41.87,2.13,50.4,24.23.78,1.94,1.94,2.91,3.88,2.91h3.88c.97,0,1.94-.97,1.94-1.94l-1.94-30.05c0-.97-.97-1.94-1.94-1.94h-116.31c-.97,0-1.94.97-1.94,1.94v2.91c0,.97.97,1.94,1.94,1.94,20.35,0,20.35,10.66,20.35,54.28v13.57c0,43.62,0,54.28-20.35,54.28-.97,0-1.94.97-1.94,1.94v2.91c0,.97.97,1.94,1.94,1.94h130.85c.97,0,1.94-.97,1.94-1.94v-34.89c0-.97-.97-1.94-1.94-1.94Z"/><path class="cls-2" d="m1512.15,83.75v35.86c0,.97-.97,1.94-1.94,1.94h-2.91c-.97,0-2.13.19-2.91-1.94-4.46-12.6-12.02-31.02-37.8-31.02h-8.72v67.85c0,43.42,2.71,54.28,25.2,54.28.97,0,1.94.97,1.94,1.94v2.91c0,.97-.97,1.94-1.94,1.94-27.14-.58-53.31-.58-80.45,0-.97,0-1.94-.97-1.94-1.94v-2.91c0-.97.97-1.94,1.94-1.94,22.49,0,25.2-10.86,25.2-54.28v-67.85h-8.72c-25.59,0-33.15,18.42-37.8,31.02-.78,1.94-1.94,1.94-2.91,1.94h-2.91c-.97,0-1.94-.97-1.94-1.94v-35.86c0-.97.97-1.94,1.94-1.94h134.73c.97,0,1.94.97,1.94,1.94Z"/><path class="cls-2" d="m1603.68,76.96c37.99.39,72.89,33.34,72.69,71.72.19,38.77-34.7,71.72-72.69,71.72-37.99-.39-72.89-33.34-72.69-71.72-.19-38.77,34.7-71.72,72.69-71.72Zm0,135.69c34.7-.19,37.41-49.04,36.83-63.97.19-11.44-2.13-63.39-36.83-63.97-34.7.19-37.03,52.15-36.83,63.97-.58,14.54,2.13,63.39,36.83,63.97Z"/><path class="cls-2" d="m1852.11,83.75v2.91c0,.97-.97,1.94-1.94,1.94-11.44,0-25.2,2.91-25.2,28.11v98.86c0,.97-.97,1.94-1.94,1.94h-3.88c-.97,0-1.94,0-2.91-.97l-88.2-100.8v66.88c0,25.2,13.76,28.11,25.2,28.11.97,0,1.94.97,1.94,1.94v2.91c0,1.16-.78,1.94-1.94,1.94-19.38-.58-38.77-.58-58.15,0-1.16,0-1.94-.78-1.94-1.94v-2.91c0-.97.97-1.94,1.94-1.94,11.44,0,25.2-2.91,25.2-28.11v-72.69c-6.98-10.27-15.12-20.16-24.23-21.32-.97,0-1.94-.97-1.94-1.94v-2.91c0-1.16.78-1.94,1.94-1.94h43.62c.97,0,2.13,0,2.91.97l74.63,90.14v-56.22c0-25.2-13.76-28.11-25.2-28.11-.97,0-1.94-.97-1.94-1.94v-2.91c0-1.16.78-1.94,1.94-1.94,19.39.58,38.77.58,58.16,0,1.16,0,1.94.78,1.94,1.94Z"/><path class="cls-2" d="m604.52,284.73v2.91c0,.97,0,1.94-1.94,1.94-14.55,0-17.46,6.79-17.46,20.37v54.32c0,33.95-9.7,56.26-54.32,56.26-37.83,0-51.41-22.31-51.41-56.26v-54.32c0-19.4-3.88-20.37-19.4-20.37-.97,0-1.94-.97-1.94-1.94v-2.91c0-.78.97-1.94,1.94-1.94,19.4.58,35.89.58,56.25,0,1.94,0,1.94.97,1.94,1.94v2.91c0,.97,0,1.94-1.94,1.94-15.52,0-20.37.97-20.37,20.37v47.53c0,27.16,4.66,49.47,40.74,49.47s41.71-22.31,41.71-49.47v-47.53c0-19.4-14.55-20.37-28.13-20.37-1.94,0-1.94-.97-1.94-1.94v-2.91c0-.97,0-1.94,1.94-1.94,27.16.58,34.92.58,52.38,0,1.94,0,1.94.78,1.94,1.94Z"/><path class="cls-2" d="m781.21,284.73v2.91c0,.97,0,1.94-1.94,1.94-13.58,0-24.25,2.91-24.25,28.13v98.93q0,1.94-.97,1.94h-4.85c-.97,0,0-.97-92.14-106.69v72.74c0,24.25,9.7,27.16,24.25,27.16,1.94,0,1.94.97,1.94,1.94v2.91c0,.97,0,1.94-1.94,1.94-24.25-.58-31.04-.58-55.29,0-1.94,0-1.94-.97-1.94-1.94v-2.91c0-.97,0-1.94,1.94-1.94,15.52,0,24.25-2.91,24.25-27.16v-79.53c-6.79-9.7-9.7-15.52-22.31-15.52-1.94,0-1.94-.97-1.94-1.94v-2.91c0-.97,0-1.94,1.94-1.94h28.13c.97,0,1.94,0,2.91.97l89.23,105.72v-71.77c0-25.22-10.67-28.13-24.25-28.13-1.94,0-1.94-.97-1.94-1.94v-2.91c0-.97,0-1.94,1.94-1.94,24.25.58,31.04.58,55.29,0,1.94,0,1.94.97,1.94,1.94Z"/><path class="cls-2" d="m872.93,284.73v2.91c0,.97,0,1.94-1.94,1.94-22.31,0-24.25.97-24.25,54.32v13.58c0,54.32,1.94,54.32,24.25,54.32,1.94,0,1.94.97,1.94,1.94v2.91c0,.97,0,1.94-1.94,1.94-27.16-.58-37.83-.58-64.99,0-1.94,0-1.94-.97-1.94-1.94v-2.91c0-.97,0-1.94,1.94-1.94,22.31,0,24.25,0,24.25-54.32v-13.58c0-53.35-1.94-54.32-24.25-54.32-1.94,0-1.94-.97-1.94-1.94v-2.91c0-1.16,0-1.94,1.94-1.94,28.13.58,37.83.58,64.99,0,1.94,0,1.94.97,1.94,1.94Z"/><path class="cls-2" d="m1035.35,284.73v2.91c0,.97,0,1.94-1.94,1.94-12.61,0-16.88,6.79-22.31,20.37l-42.68,106.69c-.78,1.94-.97,1.94-1.94,1.94h-2.91c-.97,0-1.16,0-1.94-1.94l-42.68-106.69c-6.01-15.13-7.95-20.37-22.31-20.37-1.94,0-1.94-.97-1.94-1.94v-2.91c0-.97,0-1.94,1.94-1.94,14.55.58,32.98.39,56.26,0,1.94,0,1.94,1.16,1.94,1.94v2.91c0,.97,0,1.94-1.94,1.94-23.28,0-20.37,6.79-14.55,20.37,4.46,10.28,15.52,38.41,32.98,81.47l32.98-81.47c1.94-4.66,7.76-20.37-15.52-20.37-1.94,0-1.94-.97-1.94-1.94v-2.91c0-.97,0-1.94,1.94-1.94,23.28.58,36.86,0,44.62,0,1.94,0,1.94.78,1.94,1.94Z"/><path class="cls-2" d="m1178.82,379.79h-1.94c-2.91,0-3.1.97-3.88,2.91-7.76,22.31-1.75,29.1-44.62,29.1h-7.76c-23.28,0-25.22-1.94-25.22-30.07v-28.13h13.58c6.79,0,21.34,1.94,21.34,24.25,0,1.94.97,1.94,1.94,1.94h2.91c.97,0,1.94,0,1.94-1.94v-54.32c0-1.94-.97-1.94-1.94-1.94h-2.91c-.97,0-1.94,0-1.94,1.94,0,22.31-14.55,23.28-21.34,23.28h-13.58v-46.56c0-8.15,1.75-10.48,14.74-10.67,40.54.19,45,2.33,50.24,24.25.39,1.94.97,2.91,3.88,2.91h1.94c.97,0,1.94-.97,1.94-1.94l-1.94-30.07c0-.97-.97-1.94-1.94-1.94-67.89.58-86.32.58-106.69,0-2.13,0-1.94,1.36-1.94,1.94v2.91c0,.97,0,1.94,1.94,1.94,20.37,0,21.34,10.67,21.34,54.32v13.58c0,43.65-.97,54.32-21.34,54.32-1.94,0-1.94.97-1.94,1.94v2.91c0,.58,0,1.94,1.94,1.94,20.37-.58,38.8-.58,121.24,0,1.94,0,1.94-.97,1.94-1.94v-34.92c0-1.94-.97-1.94-1.94-1.94Z"/><path class="cls-2" d="m1315.38,315.77c0,24.64-21.34,34.92-41.71,34.92,24.44,0,36.08,24.83,41.71,48.5,1.55,6.6,8.92,12.61,18.43,12.61,1.94,0,1.94.78,1.94,1.94v2.91c0,.97,0,1.94-1.94,1.94h-33.95c-1.75,0-3.88-.97-3.88-3.88,0-58.78-33.37-62.08-45.59-62.08h-7.76c0,57.23-1.94,59.17,22.31,59.17,1.94,0,1.94.97,1.94,1.94v2.91c0,.97,0,1.94-1.94,1.94-23.28-.58-36.86-.58-61.11,0-1.94,0-1.94-.97-1.94-1.94v-2.91c0-.97,0-1.94,1.94-1.94,24.25,0,22.31-1.94,22.31-58.2v-7.76c0-56.26,1.94-56.26-22.31-56.26-1.94,0-1.94-.78-1.94-1.94v-2.91c0-.97,0-1.94,1.94-1.94h69.84c22.11,0,41.71,10.67,41.71,32.98Zm-64.99,30.07c36.86,0,42.68-12.61,42.68-30.07,0-14.55-2.91-26.19-42.68-26.19h-7.76v56.26h7.76Z"/><path class="cls-2" d="m1432.24,293.46l5.82-5.82c1.75-1.94,1.94-2.33,4.85-.97,1.75.97,2.91,1.94,2.91,2.91-1.94,8.92-5.24,15.91-.97,28.13.78,2.91.78,3.88-1.94,4.85-3.1.97-3.49.78-4.85-2.91-8.92-20.37-19.59-31.62-35.89-31.04-26.38.97-27.35,19.4-27.16,23.28-.19,36.86,80.31,18.43,80.5,68.86-.19,27.16-15.52,39.77-43.65,39.77s-31.04-10.67-37.83-10.67c-2.13,0-6.01,3.1-7.76,4.85-.97.97-2.91.97-4.85,0-3.69-1.94-3.1-2.72-1.94-7.76,1.75-10.67,1.55-15.52.97-26.19-.39-2.91-1.16-3.88,1.94-4.85,3.88-1.36,3.49.97,4.85,3.88,9.51,25.22,21.15,33.95,40.74,33.95,28.9,0,31.81-20.37,32.01-29.1-.19-32.98-79.73-17.46-79.53-65.96-.19-21.34,17.26-36.86,39.77-36.86,18.24,0,25.41,6.98,32.01,11.64Z"/><path class="cls-2" d="m1543.96,284.73v2.91c0,.97,0,1.94-1.94,1.94-22.31,0-24.25.97-24.25,54.32v13.58c0,54.32,1.94,54.32,24.25,54.32,1.94,0,1.94.97,1.94,1.94v2.91c0,.97,0,1.94-1.94,1.94-27.16-.58-37.83-.58-64.99,0-1.94,0-1.94-.97-1.94-1.94v-2.91c0-.97,0-1.94,1.94-1.94,22.31,0,24.25,0,24.25-54.32v-13.58c0-53.35-1.94-54.32-24.25-54.32-1.94,0-1.94-.97-1.94-1.94v-2.91c0-1.16,0-1.94,1.94-1.94,28.13.58,37.83.58,64.99,0,1.94,0,1.94.97,1.94,1.94Z"/><path class="cls-2" d="m1704.5,284.73v35.89c0,1.94-.97,1.94-1.94,1.94h-1.94c-.97,0-1.94,0-2.91-1.94-5.82-12.61-3.88-31.04-40.74-31.04h-11.64v67.89c0,54.32,1.94,54.32,24.25,54.32,1.94,0,1.94.97,1.94,1.94v2.91c0,1.16,0,1.94-1.94,1.94-25.22-.39-39.77-.39-64.98,0-1.94,0-1.94-.78-1.94-1.94v-2.91c0-.97,0-1.94,1.94-1.94,22.31,0,24.25,0,24.25-54.32v-67.89h-11.64c-36.86,0-34.92,18.43-40.74,31.04-.97,1.94-1.94,1.94-2.91,1.94h-1.94c-.97,0-1.94,0-1.94-1.94v-35.89c0-.97,0-1.94,1.94-1.94h130.94c1.94,0,1.94.97,1.94,1.94Z"/><path class="cls-2" d="m1850.17,282.79c.97,0,1.94.97,1.94,1.94v2.91c0,.97,0,1.94-1.94,1.94-7.76,0-18.82,6.79-25.22,20.37l-28.13,59.17c0,42.68,2.91,42.68,25.22,42.68,1.94,0,1.94,1.94,1.94,2.91v1.94c0,.97,0,1.94-1.94,1.94-26.19-.58-40.74-.58-64.99,0-1.94,0-1.94-.78-1.94-1.94v-2.91c0-.97,0-1.94,1.94-1.94,20.37,0,23.28,0,23.28-40.74l-32.01-61.11c-7.37-13.97-8.92-20.37-23.28-20.37-1.94,0-1.94-.97-1.94-1.94v-2.91c0-.97,0-1.94,1.94-1.94,14.55.58,40.74.58,52.38,0,1.94,0,1.94.97,1.94,1.94v2.91c0,.97,0,1.94-1.94,1.94-11.64,0-19.4,3.49-10.67,20.37l26.19,50.44,24.25-50.44c6.79-14.16,7.76-20.37-11.64-20.37-1.94,0-1.94-.97-1.94-1.94v-2.91c0-.97,0-1.94,1.94-1.94,19.4.58,36.86,0,44.62,0Z"/><path class="cls-2" d="m390.58,72.98C257.62,108.93,196.43,0,196.43,0c0,0-61.19,108.93-194.14,72.98,0,0-8.9,57.69,8.37,137.82h371.54c17.27-80.14,8.37-137.82,8.37-137.82Zm-192.28,18.35c4.92-6.36,11.63-6.24,18.15-5.15,6.08.97,12.07,1.62,18.15,2.71,9.32,1.68,20.09,3.12,30.09-1.01v85.74c-3.79,3.01-11.21,3.72-16.9,3.36-10.18-.81-20.12-3.01-30.28-4.06-6.74-.88-13.31-1.34-19.21,3.46v-85.03Zm-70.11-3.46c10.01,4.13,20.78,2.69,30.09,1.01,6.08-1.09,12.07-1.74,18.15-2.71,6.52-1.09,13.23-1.21,18.15,5.15v85.03c-5.92-4.8-12.48-4.34-19.21-3.45-10.16,1.05-20.11,3.25-30.28,4.06-5.7.36-13.12-.34-16.9-3.36v-85.74Zm-15.34,78.48h-7.9v-15.79h7.9v15.79Zm0-41.35h-7.9v-15.79h7.9v15.79Zm163.64,59.48c-3.93.57-17.02,2.3-29.47,2.3-19.36-.16-37.65-2.56-41.42-3.09v5.93c-1.11.46-4.48,1.73-9.2,1.71-4.78-.02-7.95-1.25-9.1-1.71v-5.93c-2.43.33-21.63,2.93-41.42,3.09-12.44,0-25.54-1.74-29.47-2.3v-86.11c2.13-.46,6.06-1.32,8.07-1.76.02.04-.04,78.23.02,78.25.06.11,1.58,2.69,5.1,3.84,9,3,15.71,2.1,22.85,1.15,6.32-.84,12.1-1.64,17.66-2.44,6.31-.87,12.96-2.55,19.06-.16,1.7.69,4.03,2.01,5.47,4.37l.08.13.58-.34h2.29l.58.34s.08-.13.08-.13c5.88-8.16,16.15-5.33,24.53-4.21,5.58.8,11.35,1.6,17.69,2.45,7.11.95,13.82,1.85,22.82-1.15,3.52-1.15,5.04-3.74,5.1-3.84.05,0,.02-78.24.02-78.25,2.02.45,5.94,1.32,8.07,1.76v86.1Zm11.45-18.13h-7.9v-15.79h7.9v15.79Zm0-41.35h-7.9v-15.79h7.9v15.79Z"/><path class="cls-1" d="m196.43,217.72L62.71,347.22c12.03,21.15,26.3,42.52,43.22,63.71l90.5-89.23,90.5,89.23c16.91-21.19,31.19-42.56,43.22-63.71l-133.72-129.49Z"/><path class="cls-2" d="m196.43,217.72L62.71,347.22c12.03,21.15,26.3,42.52,43.22,63.71l90.5-89.23,90.5,89.23c16.91-21.19,31.19-42.56,43.22-63.71l-133.72-129.49Z"/><path class="cls-2" d="m196.43,17.52c6.08,8.09,15.44,19.07,28.25,30.06,40.92,35.12,84.41,42.5,113.69,42.5,14.13,0,28.76-1.64,43.62-4.89,1.59,19.9,3.05,65.83-9.39,123.54-10.13,46.98-27.28,91.94-50.99,133.63-12.3,21.63-26.55,42.64-42.36,62.44-23.72,29.72-51.56,57.5-82.82,82.66-31.27-25.16-59.11-52.94-82.82-82.66-15.81-19.81-30.06-40.82-42.35-62.44-23.71-41.69-40.86-86.65-50.99-133.63-8.69-40.31-10.48-74.65-10.44-96.36.02-11.46.53-20.7,1.05-27.19,14.87,3.25,29.5,4.89,43.63,4.89,53.04,0,91.1-23.11,113.68-42.5,12.8-10.99,22.17-21.97,28.25-30.06m0-17.52s-45.09,80.26-141.93,80.26c-15.98,0-33.37-2.18-52.21-7.28,0,0-8.9,57.69,8.37,137.82,8.87,41.14,24.64,88.2,52.05,136.41,12.03,21.15,26.3,42.52,43.22,63.71,24.31,30.46,54.08,60.55,90.5,89.07,36.43-28.52,66.19-58.61,90.5-89.07,16.91-21.19,31.19-42.56,43.22-63.71,27.41-48.21,43.18-95.27,52.05-136.41,17.27-80.14,8.37-137.82,8.37-137.82-18.83,5.09-36.23,7.28-52.21,7.28C241.51,80.26,196.43,0,196.43,0h0Z"/><path class="cls-2" d="m151.57,103.64c-1.32.1-2.18.79-2.58,1.69l-5.42,12.07s-.27.18-.43.18-.36-.18-.49-.56c-.13-.43-.79-2.12-2.21-5.41l-1.75-3.95c-.63-1.45-1.12-2.41-1.29-2.71-.63-1.08-1.42-1.17-2.28-1.32-.1-.13-.1-.25-.1-.36s0-.2.06-.35h.89c1.02,0,1.88.05,2.64.05.89,0,2.38-.08,3.37-.08h.6c.1.03.13.23.13.31,0,.07,0,.3-.07.4-.66.06-2.14.03-2.14.96,0,.2.03.56.13.81l3.57,8.46,2.98-7.02c.36-.79.39-1.48.39-1.85,0-.79-.56-1.14-2.05-1.32-.03-.1-.1-.23-.1-.33,0-.13.06-.33.1-.41h.43c.66,0,1.32.08,2.8.08.27,0,1.29-.05,1.78-.05h1.03c.06.11.13.2.13.32,0,.1-.07.31-.13.39"/><path class="cls-2" d="m166.66,117.17c-4.33,0-6.67-.11-7.26-.11-.46,0-1.52-.03-2.05-.03-.6,0-1.99.1-3.5.1l-.86-.03c-.07-.11-.07-.2-.07-.31,0-.12,0-.29.03-.41,1.16-.09,1.99-.29,2.18-.46.23-.29.4-.89.46-2.18,0-.66.03-1.39.03-2.13,0-1.09-.03-2.41-.03-4.01v-2.23c-.03-1.57-.79-1.57-2.41-1.75-.03-.15-.07-.28-.07-.38,0-.08.04-.31.13-.36h.79c.53,0,1.95.03,4.66.03,2.48,0,4.89.05,5.42.05.33,0,1.29.02,1.48.02.33,0,.46.03.46.33l.2,3.24c-.2.1-.23.13-.39.13-.13,0-.23,0-.33-.03-.96-1.62-1.42-1.93-2.14-2.48-.27-.2-.66-.31-1.26-.36-.2,0-.7-.03-1.92-.03-.99,0-1.48.03-1.62.04-.17,0-.13-.01-.2.55-.03.35-.06,1-.06,2.87v1.85h.49c.63,0,1.26-.07,1.62-.16.56-.15,1.15-.56,1.45-1.03.13-.16.27-.94.34-1.19.1-.06.26-.1.46-.1.13,0,.27.03.37.11-.04.58-.13,1.67-.13,3.05,0,.7.06,2.21.06,2.84-.13.1-.2.11-.4.11-.1,0-.29-.01-.39-.05-.13-1.22-.33-2.04-1.35-2.47-.56-.23-1.03-.3-1.59-.3-.3,0-.66.03-.96.07v3.73c0,.86.06,1.38.2,1.68.1.25.43.74.86.79.2.03.56.1,1.33.1h2.05c.53,0,1.28-.07,1.55-.23.49-.34,1.82-1.76,2.28-3.06.2-.08.3-.08.43-.08s.27.03.43.1v3.78c0,.34-.23.39-.76.39"/><path class="cls-2" d="m183.84,107.39c-.1,0-.23-.03-.39-.05-.34-.88-.73-1.68-1.06-2.11-.6-.73-1.15-1.21-2.65-1.39-.33-.01-1.12-.01-1.38-.01l-.03,6.29c0,1,0,2.17.03,4.33.03,1.66.76,1.66,2.47,1.88.1.18.13.3.13.41,0,.12-.03.23-.1.35h-.62c-1,0-2.98-.06-3.6-.06-.43,0-2.61.1-3.64.1-.1-.15-.13-.15-.13-.38,0-.11.03-.23.1-.37,2.28-.17,2.51-.6,2.58-1.33.07-.46.07-2.34.07-4.26v-5.22c0-.65-.04-1.31-.13-1.73-.43,0-1.82,0-2.21.15-1.15.43-1.98,1.41-2.87,3.14-.1.05-.26.05-.36.05-.13,0-.27-.05-.33-.15v-3.67c0-.33.03-.41.43-.41.32,0,.86.02,1.55.02.49,0,2.58.03,5.18.03,3.44,0,5.98-.08,6.64-.08.33,0,.56,0,.69.11.03.07,0,.33,0,.53v3.66c-.06.13-.23.18-.36.18"/><path class="cls-2" d="m150.87,129.75c-.13,0-.23-.03-.43-.05-.3-.88-.69-1.68-1.05-2.11-.56-.73-1.16-1.21-2.65-1.39-.33-.01-1.12-.01-1.38-.01l-.04,6.29c0,1,0,2.16.04,4.33.03,1.66.79,1.66,2.51,1.88.1.18.1.3.1.41s0,.23-.07.35h-.63c-1.02,0-3-.06-3.6-.06-.43,0-2.61.1-3.67.1-.06-.15-.1-.15-.1-.38,0-.11.04-.23.07-.38,2.28-.16,2.51-.59,2.61-1.32.03-.46.03-2.34.03-4.26v-5.22c0-.65,0-1.31-.1-1.73-.43,0-1.85,0-2.25.15-1.15.43-1.95,1.4-2.84,3.14-.13.04-.3.04-.39.04-.13,0-.23-.04-.33-.15v-3.67c0-.33.06-.41.43-.41s.86.02,1.55.02c.53,0,2.61.03,5.22.03,3.4,0,5.98-.08,6.6-.08.36,0,.6,0,.69.11.06.06.03.33.03.53v3.67c-.1.13-.23.18-.36.18"/><path class="cls-2" d="m167.19,139.53c-4.29,0-6.67-.11-7.23-.11-.46,0-1.52-.03-2.08-.03s-1.98.1-3.47.1l-.86-.03c-.07-.11-.1-.2-.1-.31,0-.12,0-.29.07-.42,1.15-.08,1.98-.28,2.14-.46.27-.29.39-.89.46-2.18.03-.66.06-1.39.06-2.13,0-1.09-.03-2.41-.03-4.01,0-1.11-.03-1.77-.03-2.23-.03-1.57-.76-1.57-2.38-1.75-.06-.15-.1-.28-.1-.38,0-.08.07-.31.16-.36h.76c.56,0,1.95.03,4.66.03,2.51,0,4.89.05,5.45.05.3,0,1.29.02,1.45.02.37,0,.49.03.49.33l.17,3.24c-.17.1-.23.13-.4.13-.1,0-.2,0-.33-.03-.93-1.62-1.39-1.93-2.14-2.48-.27-.2-.63-.31-1.22-.36-.2,0-.69-.03-1.95-.03-.96,0-1.49.03-1.59.05-.2,0-.16-.02-.23.54,0,.35-.03,1-.03,2.87v1.85h.46c.66,0,1.29-.07,1.62-.16.6-.15,1.15-.56,1.48-1.03.1-.16.27-.94.3-1.19.13-.06.3-.1.46-.1s.3.04.4.12c-.04.58-.16,1.67-.16,3.05,0,.69.1,2.21.1,2.84-.16.1-.2.11-.39.11-.13,0-.3-.01-.43-.05-.13-1.22-.3-2.04-1.35-2.47-.56-.23-1.03-.3-1.55-.3-.3,0-.66.03-.96.06v3.74c0,.86.06,1.38.16,1.68.13.25.46.74.86.79.2.03.6.1,1.33.1h2.08c.53,0,1.25-.07,1.52-.23.53-.33,1.85-1.75,2.32-3.05.16-.08.29-.08.43-.08.1,0,.27.03.4.1v3.79c0,.34-.23.39-.76.39"/><path class="cls-2" d="m177.23,139.84c-1.19,0-2.51-.46-3.3-.86-.14-.07-.4-.12-.53-.12-.16,0-.59.22-1.06.55-.33,0-.72-.16-.82-.43,0-.3.27-1.19.27-1.75,0-.34-.1-1.93-.13-2.32.13-.2.39-.3.63-.3.1,0,.16,0,.23.02.3.58.89,2.13,1.33,2.76.89,1.04,2.21,1.5,3.17,1.5,1.05,0,1.85-.22,2.31-.7.66-.63.79-1.04.79-1.73,0-.51-.1-.94-.39-1.29-.37-.46-.67-.66-1.49-1.06-.63-.3-2.84-.84-3.64-1.27-.99-.46-1.48-.86-1.98-1.4-.6-.76-.82-1.79-.82-2.59,0-2.3,1.81-4,4.39-4,.96,0,2.28.08,3.4.97.23-.26.53-.54.83-.81.43,0,.72.23.76.38-.04.34-.23,1.24-.23,1.95,0,.38.23,1.88.23,2.11-.16.07-.33.2-.56.2-.06,0-.16-.03-.26-.06-.4-.69-.77-1.85-1.19-2.47-.66-.89-1.59-1.22-2.84-1.22-1.42,0-2.58.89-2.58,2.11s.96,1.75,1.75,2.11c.6.23,1.32.51,2.14.76,1.06.36,1.85.64,2.28.88,1.65.84,2.34,2.06,2.34,3.77,0,2.62-2.38,4.31-5.02,4.31"/><path class="cls-2" d="m156.62,161.92c-4.33,0-6.67-.11-7.27-.11-.46,0-1.52-.03-2.04-.03-.6,0-1.98.1-3.5.1l-.86-.03c-.07-.11-.07-.2-.07-.31,0-.12,0-.29.03-.41,1.15-.08,1.99-.29,2.18-.46.23-.29.39-.89.46-2.18,0-.66.03-1.39.03-2.13,0-1.09-.03-2.41-.03-4.01v-2.23c-.03-1.57-.79-1.57-2.41-1.75-.03-.15-.07-.28-.07-.38,0-.08.04-.31.13-.36h.79c.53,0,1.95.03,4.66.03,2.48,0,4.89.05,5.42.05.33,0,1.29.02,1.48.02.34,0,.46.03.46.33l.2,3.24c-.2.1-.23.13-.39.13-.13,0-.23,0-.33-.03-.96-1.62-1.42-1.93-2.14-2.48-.27-.2-.67-.31-1.26-.36-.2,0-.7-.03-1.92-.03-.99,0-1.49.03-1.62.05-.16,0-.13-.02-.2.54-.03.35-.06,1-.06,2.88v1.85h.49c.63,0,1.26-.07,1.62-.16.56-.15,1.15-.56,1.45-1.02.13-.17.27-.95.33-1.19.1-.06.27-.1.46-.1.13,0,.27.04.36.12-.03.58-.13,1.67-.13,3.05,0,.7.06,2.21.06,2.84-.13.1-.2.11-.39.11-.1,0-.3-.01-.4-.05-.13-1.22-.33-2.04-1.35-2.47-.56-.23-1.03-.3-1.59-.3-.3,0-.66.03-.96.07v3.73c0,.86.06,1.38.2,1.68.1.25.43.74.86.79.2.03.56.1,1.33.1h2.04c.53,0,1.29-.07,1.55-.23.49-.33,1.81-1.75,2.28-3.05.2-.08.29-.08.43-.08s.27.03.43.1v3.79c0,.34-.23.39-.76.39"/><path class="cls-2" d="m177.43,148.35c-1.45.05-2.71.84-2.71,3.15l-.03,7.35c0,.28.13,2.36.13,3.15-.23.15-.46.23-.6.23-.07,0-.2-.08-.36-.23l-10.07-10.84.1,2.21.04,4c0,.31.06,1.06.13,1.62.07.89.34,1.19.73,1.52.49.43,1.32.56,1.92.63.06.12.1.23.1.34,0,.04-.04.23-.13.36h-1.09c-.93,0-1.65-.03-2.61-.03-.63,0-1.52.06-2.15.06h-.46c-.03-.1-.03-.27-.03-.33s0-.2.07-.36c.72-.07,1.85-.4,2.28-1,.16-.36.23-1.02.23-1.71v-5.12c0-.82-.03-1.24-.06-2.05-.03-.66-.16-1.15-.49-1.55-.03-.08-.37-.43-.7-.74-.32-.28-1.12-.51-1.62-.71-.06-.13-.1-.3-.1-.33,0-.08.03-.27.1-.36h.37c.3,0,1.85.08,3.04.08h.69c.13.05.36.2.43.28l7.46,8.16c.56.63,1.29,1.45,1.69,1.98v-5.87c0-.79-.04-1.36-.07-1.64-.06-.61-.2-1.12-.42-1.54-.23-.36-1.62-.56-2.35-.71-.06-.15-.06-.32-.06-.43,0-.08,0-.18.03-.31h.43c.69,0,1.81.1,2.51.1,1.72,0,2.25-.04,3.1-.04h.56c.06.11.06.26.06.34,0,.07,0,.23-.06.35"/><path class="cls-2" d="m224.49,103.59c-1.42.05-2.71.84-2.71,3.15v7.35c0,.28.1,2.36.1,3.15-.2.15-.46.23-.56.23s-.2-.08-.39-.23l-10.07-10.84.13,2.21.03,4c0,.31.06,1.06.1,1.62.1.89.37,1.19.73,1.52.53.43,1.35.56,1.92.63.06.12.1.23.1.34,0,.04-.04.23-.1.36h-1.12c-.89,0-1.62-.03-2.61-.03-.63,0-1.49.06-2.12.06h-.46c-.04-.1-.07-.27-.07-.33s0-.2.1-.36c.69-.07,1.81-.4,2.25-1,.2-.36.23-1.02.23-1.71v-5.12c0-.82,0-1.24-.03-2.05-.03-.66-.2-1.15-.49-1.55-.06-.08-.36-.43-.73-.74-.29-.28-1.12-.51-1.62-.71-.03-.13-.06-.3-.06-.33,0-.08.03-.27.06-.36h.4c.27,0,1.81.08,3.01.08h.69c.13.05.36.2.46.28l7.46,8.16c.56.63,1.29,1.45,1.69,1.98v-5.87c0-.79-.07-1.36-.1-1.64-.03-.61-.2-1.12-.42-1.54-.23-.36-1.62-.56-2.32-.71-.06-.15-.1-.32-.1-.43,0-.08,0-.18.06-.31h.43c.69,0,1.81.1,2.51.1,1.69,0,2.25-.04,3.11-.04h.53c.06.11.1.26.1.34,0,.07-.04.23-.1.35"/><path class="cls-2" d="m237.01,104.95c-.7-.95-1.55-1.5-2.84-1.5-1.19,0-1.95.53-2.65,1.5-.86,1.08-1.32,2.82-1.32,5.03s.46,3.9,1.26,5.01c.73,1.04,1.55,1.57,2.81,1.57,1.52,0,2.41-.71,3.1-1.95.63-1.09.93-2.61.93-4.57,0-2.36-.46-4.01-1.29-5.08m2.31,10.42c-1.39,1.37-3.31,2.14-5.08,2.14s-3.64-.72-4.99-2.05c-1.48-1.41-2.14-3.33-2.14-5.43s.66-3.95,2.14-5.4c1.59-1.5,3.31-2.13,5.02-2.13,1.25,0,2.41.32,3.76,1.06,2.21,1.4,3.5,3.75,3.5,6.32,0,2.01-.79,4.03-2.21,5.48"/><path class="cls-2" d="m259.6,103.64c-1.29.1-2.15.79-2.54,1.69l-5.42,12.07s-.27.18-.43.18-.39-.18-.49-.56c-.13-.43-.79-2.12-2.24-5.41l-1.72-3.95c-.63-1.45-1.12-2.41-1.29-2.71-.66-1.08-1.42-1.17-2.28-1.32-.13-.13-.13-.25-.13-.36s0-.2.1-.35h.89c.99,0,1.85.05,2.61.05.89,0,2.38-.08,3.4-.08h.56c.13.03.16.23.16.31,0,.07,0,.3-.07.4-.69.06-2.14.03-2.14.96,0,.2,0,.56.13.81l3.53,8.46,3.01-7.02c.33-.79.36-1.48.36-1.85,0-.79-.56-1.14-2.05-1.32-.03-.1-.06-.23-.06-.33,0-.13.03-.33.06-.41h.43c.66,0,1.32.08,2.84.08.23,0,1.29-.05,1.78-.05h1.02c.06.11.1.2.1.32,0,.1-.04.31-.13.39"/><path class="cls-2" d="m219.84,129.75c-.13,0-.23-.03-.43-.05-.3-.88-.69-1.68-1.05-2.11-.56-.73-1.15-1.21-2.65-1.39-.33-.01-1.12-.01-1.39-.01l-.03,6.29c0,1,0,2.16.03,4.33.04,1.66.8,1.66,2.51,1.88.1.18.1.3.1.41s0,.23-.07.35h-.62c-1.03,0-3.01-.06-3.6-.06-.43,0-2.61.1-3.67.1-.06-.15-.1-.15-.1-.38,0-.11.03-.23.06-.38,2.28-.16,2.51-.59,2.61-1.32.03-.46.03-2.34.03-4.26v-5.22c0-.65,0-1.31-.1-1.73-.43,0-1.85,0-2.25.15-1.15.43-1.95,1.4-2.84,3.14-.13.04-.3.04-.4.04-.13,0-.23-.04-.32-.15v-3.67c0-.33.06-.41.43-.41s.86.02,1.55.02c.53,0,2.61.03,5.21.03,3.41,0,5.98-.08,6.61-.08.36,0,.59,0,.69.11.06.06.03.33.03.53v3.67c-.1.13-.23.18-.36.18"/><path class="cls-2" d="m227.93,128.2h-.03c-.3.55-.83,1.78-1.03,2.3-.76,1.85-1.02,2.47-1.15,2.74h4.26c-.33-.84-1.41-3.47-2.04-5.04m9.01,11.31h-1.12c-.73,0-1.55-.1-2.41-.1-1.35,0-3.07.1-3.74.1-.06-.06-.1-.2-.1-.36,0-.1.03-.23.06-.33,1.39-.07,1.95-.3,1.95-.86,0-.23,0-.69-.43-1.85-.43-1.04-.66-1.52-.76-1.78-.06-.1-.1-.15-.39-.15h-4.5c-.29.35-.65,1.36-1.05,2.73-.1.36-.1.69-.1.82,0,.46.43.99,2.02,1.02.1.16.1.3.1.4,0,.1,0,.22-.04.33h-.39c-1.06,0-1.36-.06-2.48-.06-.72,0-2.47.06-3.07.06-.03-.11-.06-.16-.06-.3,0-.1,0-.2.06-.36.86-.18,1.66-.43,2.05-1.04.23-.35.99-1.67,1.81-3.72.8-1.9,1.75-4.31,2.18-5.32.6-1.24.79-1.66.99-2.08.3-.63.63-1.26.76-1.48.13-.16.43-.27.56-.27.23,0,.53.15.63.3.13.26.3.55.33.71.83,1.96,1.49,3.71,2.51,6.16.53,1.24.79,2.01,1.36,3.3.39.81.62,1.42,1.02,2.16.53,1.07,1.38,1.09,2.25,1.31.03.1.13.2.13.33s-.07.2-.13.33"/><path class="cls-2" d="m259.01,139.51l-5.78-.06h-1.59c-.06-.11-.1-.3-.1-.37,0-.18.04-.22.13-.36.3-.03,1.06,0,1.42-.13.6-.26.82-.84.82-1.7v-10.27h-.03l-3.04,6.65c-.33.73-.72,1.52-1.06,2.32-.69,1.55-1.05,2.63-1.25,3.24-.1.26-.34.26-.46.26-.2,0-.33-.06-.43-.39-.39-.86-.66-1.42-.79-1.78l-4.76-10.47h-.1v2.68l.1,6.69c0,2.04,1.06,2.99,2.68,2.99.07.11.13.29.13.34,0,.08-.03.23-.1.35-.1,0-.42.03-.72.03-.2,0-1.26-.1-2.78-.1-.43,0-1.32.03-2.01.03h-.96c-.03-.11-.07-.23-.07-.35,0-.05.04-.2.07-.31.39-.1,1.78-.43,2.08-.73.3-.28.56-.89.56-2.3v-7.33c-.03-1.17-.16-1.62-.72-2.01-.23-.18-1.12-.28-1.88-.38-.06-.13-.1-.28-.1-.4,0-.1.04-.23.1-.38.56,0,1.55.05,2.54.05h3.47c.13.1.2.16.3.37l4.26,9.66.76-1.94c.66-1.55,1.62-3.88,2.97-6.41.3-.56.67-1.28.86-1.65l5.42-.09c.06.12.13.22.13.35,0,.15-.03.23-.1.36-.6.1-1.62.1-2.11.93-.16.27-.27.53-.27,1.7v6.89c0,2.64.66,2.91.96,3.1.16.1.99.2,1.45.2.06.13.1.23.1.36,0,.22-.07.23-.1.36"/><path class="cls-2" d="m219.51,152.14c-.13,0-.23-.03-.43-.05-.3-.88-.69-1.68-1.05-2.11-.56-.73-1.15-1.21-2.65-1.39-.33-.01-1.12-.01-1.38-.01l-.04,6.29c0,1,0,2.17.04,4.33.03,1.66.79,1.66,2.51,1.88.1.18.1.3.1.41,0,.12,0,.23-.07.35h-.62c-1.03,0-3.01-.06-3.6-.06-.43,0-2.61.1-3.67.1-.06-.15-.1-.15-.1-.38,0-.11.04-.23.07-.37,2.28-.17,2.51-.6,2.61-1.33.03-.46.03-2.34.03-4.26v-5.22c0-.64,0-1.31-.1-1.73-.43,0-1.85,0-2.25.15-1.15.43-1.95,1.41-2.84,3.14-.13.04-.3.04-.39.04-.13,0-.23-.04-.33-.15v-3.67c0-.33.06-.41.43-.41s.86.02,1.55.02c.53,0,2.61.03,5.22.03,3.4,0,5.98-.08,6.6-.08.36,0,.59,0,.69.11.06.07.03.33.03.53v3.67c-.1.13-.23.18-.36.18"/><path class="cls-2" d="m237.24,148.39c-1.29.1-2.15.79-2.54,1.68l-5.42,12.07s-.26.18-.42.18-.4-.18-.49-.56c-.13-.43-.8-2.11-2.25-5.4l-1.72-3.95c-.63-1.45-1.12-2.41-1.29-2.71-.66-1.09-1.42-1.17-2.28-1.32-.13-.13-.13-.25-.13-.36s0-.2.1-.35h.89c.99,0,1.85.05,2.61.05.89,0,2.38-.08,3.4-.08h.56c.13.03.16.23.16.31,0,.07,0,.3-.06.4-.7.06-2.15.03-2.15.96,0,.2,0,.56.13.81l3.53,8.46,3.01-7.02c.33-.79.36-1.49.36-1.85,0-.79-.56-1.14-2.05-1.32-.03-.1-.06-.23-.06-.33,0-.13.03-.33.06-.41h.43c.66,0,1.32.08,2.84.08.23,0,1.29-.05,1.78-.05h1.02c.07.11.1.2.1.32,0,.1-.03.31-.13.39"/><path class="cls-2" d="m259.3,161.9l-5.75-.06h-1.62c-.07-.12-.07-.3-.07-.36,0-.18,0-.22.1-.37.33-.03,1.06,0,1.45-.13.56-.26.79-.84.79-1.7v-8.34s.04-1.5.04-1.93h-.07l-3.01,6.65c-.36.73-.72,1.52-1.08,2.31-.67,1.55-1.06,2.63-1.26,3.24-.06.27-.29.27-.46.27s-.3-.07-.43-.4c-.36-.86-.63-1.42-.76-1.78l-4.79-10.47h-.1v2.68l.1,6.69c.03,2.03,1.06,2.99,2.71,2.99.07.11.1.3.1.34,0,.08,0,.23-.06.35-.13,0-.43.03-.76.03-.2,0-1.22-.1-2.74-.1-.46,0-1.36.03-2.02.03h-.96c-.06-.12-.1-.23-.1-.35,0-.05.04-.2.1-.31.37-.1,1.78-.43,2.08-.73.27-.28.53-.89.53-2.3l.03-3.37-.03-3.96c-.03-1.17-.13-1.62-.72-2.01-.23-.18-1.12-.29-1.85-.38-.1-.13-.13-.28-.13-.4,0-.1.04-.23.13-.37.53,0,1.55.04,2.51.04h3.5c.1.1.2.17.26.37l4.26,9.66.79-1.94c.63-1.55,1.62-3.88,2.97-6.41.27-.56.67-1.28.86-1.65l5.39-.08c.06.11.16.22.16.34,0,.15-.06.23-.13.37-.56.1-1.59.1-2.08.92-.16.27-.3.53-.3,1.7v6.89c0,2.64.66,2.91.99,3.1.13.1.96.2,1.42.2.1.13.13.23.13.36,0,.22-.07.23-.13.36"/></svg>